#!OML:ASF H:\BreakDance\Project 1\Capture day 1\Session 1\Male.ASF
:FULLY-SPECIFIED
:DEGREES
1
root -2.73102 16.4163 0.124588 -52.5241 -86.912 53.7222
lowerback -8.83067 2.46058 1.16036
upperback 4.33706 3.53757 -5.36161
thorax 10.0672 1.96291 -5.8352
lowerneck -5.15485 8.28769 6.70295
upperneck 15.4572 -56.977 -8.57903
head 29.2697 -38.4502 -175.19
rclavicle -1.35174e-014 2.38542e-014
rhumerus -23.0167 -3.68369 -92.2725
rradius 43.7245
rwrist 6.17207
rhand -23.8835 -36.3749
rfingers 7.12502
rthumb 2.58989 -66.339
lclavicle -1.35174e-014 2.38542e-014
lhumerus -18.5543 -19.4031 81.5613
lradius 41.888
lwrist -2.66823
lhand -28.3071 -33.8581
lfingers 7.12502
lthumb -1.68246 -3.88501
rfemur -17.0121 4.64501 9.36835
rtibia 43.3088
rfoot -31.121 -14.4816
rtoes 5.21947
lfemur -13.0731 0.22869 -13.5416
ltibia 32.681
lfoot -25.6211 20.6643
ltoes -34.8654
2
root -2.72938 16.3975 0.126974 -52.2941 -86.8176 53.4563
lowerback -8.61178 2.6177 1.43283
upperback 4.2441 3.7262 -5.63777
thorax 9.9015 2.07901 -6.26694
lowerneck -4.75883 8.48577 6.87429
upperneck 14.806 -56.3191 -7.74593
head 29.132 -37.1898 -175.857
rclavicle -1.31198e-014 1.74931e-014
rhumerus -23.2812 -4.43129 -92.506
rradius 43.7887
rwrist 6.43235
rhand -24.0475 -36.0479
rfingers 7.12502
rthumb 2.43144 -66.0138
lclavicle -1.31198e-014 1.74931e-014
lhumerus -18.6189 -20.1366 81.353
lradius 41.9429
lwrist -2.32279
lhand -28.0718 -33.7762
lfingers 7.12502
lthumb -1.45523 -3.80139
rfemur -16.9156 4.18603 9.28837
rtibia 43.0573
rfoot -30.6317 -14.8194
rtoes 2.97595
lfemur -13.3077 0.0319683 -13.6295
ltibia 33.1724
lfoot -25.863 20.6505
ltoes -35.2256
3
root -2.72836 16.3803 0.126291 -51.7405 -86.9097 52.9224
lowerback -8.58053 2.61988 1.50236
upperback 4.22306 3.71815 -5.61045
thorax 9.86129 2.07819 -6.27853
lowerneck -4.42591 8.86288 6.71605
upperneck 13.991 -55.1808 -6.88152
head 28.9498 -35.7781 -176.519
rclavicle -3.10104e-014 1.59028e-015
rhumerus -23.2914 -4.36786 -92.5382
rradius 43.7477
rwrist 6.33721
rhand -24.3141 -35.815
rfingers 7.12502
rthumb 2.17399 -65.7837
lclavicle -3.10104e-014 1.59028e-015
lhumerus -18.6315 -20.091 81.3685
lradius 41.9119
lwrist -2.38236
lhand -28.0879 -33.7313
lfingers 7.12502
lthumb -1.4708 -3.7566
rfemur -16.8985 3.99637 9.42168
rtibia 42.7874
rfoot -30.0348 -15.3248
rtoes 0.963496
lfemur -13.6059 -0.016593 -13.5096
ltibia 33.6945
lfoot -26.1766 20.6781
ltoes -35.5973
4
root -2.72951 16.3613 0.126052 -52.2147 -86.9382 53.4132
lowerback -8.62111 2.608 1.45591
upperback 4.24509 3.70661 -5.56904
thorax 9.90119 2.06893 -6.20732
lowerneck -4.12138 9.27829 6.50346
upperneck 13.0658 -53.7149 -5.94946
head 28.6478 -34.1623 -177.165
rclavicle -3.73715e-014 7.95139e-015
rhumerus -23.2313 -4.26587 -92.4958
rradius 43.7098
rwrist 6.27371
rhand -24.2201 -35.8915
rfingers 7.12502
rthumb 2.26481 -65.8592
lclavicle -3.73715e-014 7.95139e-015
lhumerus -18.5779 -19.9427 81.4169
lradius 41.883
lwrist -2.45169
lhand -28.098 -33.9333
lfingers 7.12502
lthumb -1.48057 -3.95867
rfemur -16.8895 3.7346 9.46296
rtibia 42.5301
rfoot -29.3627 -15.8543
rtoes -1.7159
lfemur -13.882 0.0253302 -13.484
ltibia 34.1812
lfoot -26.4232 20.6619
ltoes -35.3159
5
root -2.73031 16.3443 0.126197 -52.4924 -86.9417 53.7009
lowerback -8.62441 2.60808 1.44316
upperback 4.24542 3.70822 -5.56833
thorax 9.9027 2.0688 -6.19883
lowerneck -3.81737 9.63301 6.34644
upperneck 12.3466 -52.4458 -5.20619
head 28.3499 -32.6824 -177.691
rclavicle -1.2921e-014 -1.27222e-014
rhumerus -23.2275 -4.24742 -92.4984
rradius 43.6764
rwrist 6.26329
rhand -24.2392 -35.8329
rfingers 7.12502
rthumb 2.24638 -65.8008
lclavicle -1.2921e-014 -1.27222e-014
lhumerus -18.5534 -19.9092 81.4248
lradius 41.8579
lwrist -2.44662
lhand -28.0714 -34.0193
lfingers 7.12502
lthumb -1.45485 -4.0445
rfemur -16.8602 3.48344 9.47929
rtibia 42.2917
rfoot -28.7681 -16.339
rtoes -4.19087
lfemur -14.1237 0.00578985 -13.4804
ltibia 34.6249
lfoot -26.6688 20.6456
ltoes -35.3027
6
root -2.73174 16.3302 0.126178 -52.9801 -86.9322 54.2034
lowerback -8.65641 2.58824 1.37985
upperback 4.25385 3.68852 -5.54748
thorax 9.92197 2.05448 -6.14226
lowerneck -3.56941 9.94652 6.17763
upperneck 11.7741 -51.3122 -4.63065
head 28.0716 -31.409 -178.098
rclavicle 4.37326e-015 -2.8625e-014
rhumerus -23.2025 -4.14857 -92.478
rradius 43.6319
rwrist 6.24219
rhand -24.2325 -35.8069
rfingers 7.12502
rthumb 2.25284 -65.7747
lclavicle 4.37326e-015 -2.8625e-014
lhumerus -18.525 -19.8022 81.4474
lradius 41.8265
lwrist -2.46134
lhand -28.0613 -34.103
lfingers 7.12502
lthumb -1.4451 -4.12816
rfemur -16.8378 3.28694 9.47282
rtibia 42.0916
rfoot -28.2585 -16.7596
rtoes -6.34851
lfemur -14.3259 -0.000427053 -13.4974
ltibia 34.9934
lfoot -26.8783 20.6241
ltoes -35.257
7
root -2.73357 16.3198 0.125961 -53.5166 -86.9155 54.7565
lowerback -8.6886 2.57446 1.32067
upperback 4.25547 3.6772 -5.54096
thorax 9.93649 2.04479 -6.10235
lowerneck -3.38956 10.1708 6.05882
upperneck 11.3886 -50.4912 -4.24255
head 27.8593 -30.4804 -178.373
rclavicle -6.75868e-015 -1.59028e-015
rhumerus -23.1932 -4.07806 -92.468
rradius 43.5924
rwrist 6.23386
rhand -24.2149 -35.8015
rfingers 7.12502
rthumb 2.26979 -65.7692
lclavicle -6.75868e-015 -1.59028e-015
lhumerus -18.5046 -19.7294 81.4547
lradius 41.7996
lwrist -2.46865
lhand -28.0532 -34.1578
lfingers 7.12502
lthumb -1.43734 -4.18289
rfemur -16.82 3.16038 9.45247
rtibia 41.9404
rfoot -27.8957 -17.0656
rtoes -7.91379
lfemur -14.4774 -0.00506839 -13.5252
ltibia 35.2677
lfoot -27.0383 20.6007
ltoes -35.2228
8
root -2.73549 16.3135 0.125429 -53.9273 -86.9082 55.1846
lowerback -8.70631 2.57903 1.30035
upperback 4.2461 3.68682 -5.5577
thorax 9.93778 2.04842 -6.10695
lowerneck -3.28244 10.2921 6.01199
upperneck 11.1795 -50.0434 -4.02236
head 27.7369 -29.9412 -178.533
rclavicle 1.19271e-015 2.06736e-014
rhumerus -23.2055 -4.07603 -92.483
rradius 43.5609
rwrist 6.23434
rhand -24.2066 -35.8092
rfingers 7.12502
rthumb 2.27785 -65.7767
lclavicle 1.19271e-015 2.06736e-014
lhumerus -18.4929 -19.7354 81.4363
lradius 41.7835
lwrist -2.46544
lhand -28.0466 -34.171
lfingers 7.12502
lthumb -1.43096 -4.19607
rfemur -16.8086 3.115 9.441
rtibia 41.8398
rfoot -27.6957 -17.2503
rtoes -8.79205
lfemur -14.5795 -0.00936166 -13.5417
ltibia 35.4495
lfoot -27.1516 20.5773
ltoes -35.2193
9
root -2.73731 16.3105 0.124614 -54.1673 -86.9203 55.4395
lowerback -8.70411 2.60359 1.32627
upperback 4.22856 3.7183 -5.59209
thorax 9.92597 2.06621 -6.15407
lowerneck -3.23803 10.3246 6.02874
upperneck 11.1066 -49.9177 -3.92953
head 27.6962 -29.7353 -178.606
rclavicle 5.96354e-016 -1.59028e-014
rhumerus -23.2325 -4.14068 -92.52
rradius 43.5368
rwrist 6.23361
rhand -24.2172 -35.8207
rfingers 7.12502
rthumb 2.2676 -65.7884
lclavicle 5.96354e-016 -1.59028e-014
lhumerus -18.4912 -19.8244 81.3983
lradius 41.787
lwrist -2.45021
lhand -28.0505 -34.1448
lfingers 7.12502
lthumb -1.43473 -4.16988
rfemur -16.8017 3.13657 9.45172
rtibia 41.7799
rfoot -27.6189 -17.3437
rtoes -9.12547
lfemur -14.64 -0.00837335 -13.5346
ltibia 35.5585
lfoot -27.229 20.5534
ltoes -35.2254
10
root -2.73894 16.31 0.123707 -54.1936 -86.9527 55.4752
lowerback -8.67838 2.64298 1.39524
upperback 4.20452 3.76459 -5.6356
thorax 9.89904 2.09421 -6.23386
lowerneck -3.24448 10.2893 6.09285
upperneck 11.1297 -50.027 -3.92835
head 27.7141 -29.7799 -178.61
rclavicle 7.15625e-015 3.49861e-014
rhumerus -23.2748 -4.25569 -92.5704
rradius 43.5244
rwrist 6.22963
rhand -24.2358 -35.8329
rfingers 7.12502
rthumb 2.24962 -65.8008
lclavicle 7.15625e-015 3.49861e-014
lhumerus -18.5009 -19.9784 81.3529
lradius 41.809
lwrist -2.41969
lhand -28.0645 -34.0976
lfingers 7.12502
lthumb -1.44819 -4.12277
rfemur -16.7926 3.20362 9.48722
rtibia 41.7477
rfoot -27.6355 -17.3613
rtoes -9.03635
lfemur -14.6698 0.0041718 -13.502
ltibia 35.6187
lfoot -27.2713 20.5367
ltoes -35.2434
11
root -2.74021 16.3096 0.123207 -54.017 -86.9969 55.302
lowerback -8.63291 2.68593 1.49193
upperback 4.17861 3.81197 -5.67798
thorax 9.86069 2.12444 -6.32867
lowerneck -3.25245 10.2511 6.16193
upperneck 11.1476 -50.1295 -3.92162
head 27.727 -29.8182 -178.614
rclavicle 2.92213e-014 -1.90833e-014
rhumerus -23.322 -4.38692 -92.6217
rradius 43.5202
rwrist 6.2238
rhand -24.2492 -35.8271
rfingers 7.12502
rthumb 2.23667 -65.7951
lclavicle 2.92213e-014 -1.90833e-014
lhumerus -18.5161 -20.1539 81.3122
lradius 41.8392
lwrist -2.38188
lhand -28.0847 -34.0508
lfingers 7.12502
lthumb -1.46773 -4.07607
rfemur -16.784 3.24751 9.53944
rtibia 41.7273
rfoot -27.6412 -17.3775
rtoes -9.02587
lfemur -14.6851 0.0255812 -13.4528
ltibia 35.6566
lfoot -27.2885 20.5336
ltoes -35.2787
